<svg xmlns="http://www.w3.org/2000/svg" enable-background="new 0 0 600 600" viewBox="0 0 600 600" id="confetti"><path fill="#e5354e" stroke="#000" stroke-linecap="round" stroke-linejoin="round" stroke-miterlimit="10" stroke-width="10" d="M256.99,513.09c-0.07,0-0.13,0-0.2,0c-4.43-0.11-7.93-3.78-7.83-8.21c0.32-13.4,10.03-21.74,17.82-28.43c7.7-6.61,12.38-11.08,12.55-17.29c0.19-7-5.57-12.94-12.23-19.82c-7.9-8.16-16.86-17.41-16.34-30.78c0.51-13.36,10.29-21.28,18.15-27.64c7.42-6.01,11.99-9.99,12.21-15.77c0.25-6.36-5.21-11.96-11.53-18.45c-8.05-8.27-17.17-17.63-17.05-31.82c0.12-14.3,9.55-23.31,17.87-31.27c6.71-6.41,12.51-11.95,12.51-18.95c0-7.34-6.22-13.13-13.41-19.83c-8.53-7.94-18.2-16.93-18.04-30.78c0.16-13.93,10.07-22.58,18.81-30.2c8.07-7.04,12.98-11.75,13-17.72c0.02-5.88-4.78-10.54-12.68-17.52c-0.94-0.83-1.88-1.66-2.82-2.5c-3.29-2.97-3.55-8.04-0.59-11.33c2.97-3.29,8.04-3.55,11.33-0.59c0.89,0.81,1.79,1.6,2.69,2.39c8.51,7.51,18.16,16.02,18.11,29.61c-0.05,13.66-9.85,22.21-18.49,29.75c-8.24,7.19-13.24,12-13.32,18.31c-0.08,6.75,5.94,12.35,12.92,18.84c8.69,8.09,18.54,17.25,18.53,31.58c0,13.87-9.28,22.73-17.47,30.55c-6.9,6.59-12.85,12.28-12.92,19.8c-0.06,7.58,5.76,13.56,12.51,20.49c7.77,7.98,16.57,17.02,16.06,30.25c-0.51,13.36-10.29,21.27-18.14,27.63c-7.43,6.01-11.99,9.99-12.21,15.78c-0.25,6.51,5.35,12.3,11.84,18.99c8.02,8.28,17.11,17.67,16.74,31.41c-0.37,13.77-10.22,22.23-18.13,29.03c-7.52,6.46-12.09,10.81-12.23,16.65C264.9,509.62,261.34,513.09,256.99,513.09L256.99,513.09z M256.99,513.09"></path><path fill="#fff" stroke="#000" stroke-linecap="round" stroke-linejoin="round" stroke-miterlimit="10" stroke-width="10" d="M409.25,323.1c-0.02,0-0.04,0-0.07,0c-4.43-0.04-7.99-3.66-7.95-8.09c0.11-14.3,9.55-23.31,17.87-31.27c6.71-6.41,12.5-11.95,12.51-18.95c0-7.34-6.21-13.13-13.42-19.83c-8.53-7.94-18.2-16.93-18.03-30.78c0.16-13.93,10.07-22.58,18.81-30.2c8.07-7.04,12.98-11.75,13-17.72c0.02-5.89-4.78-10.55-12.69-17.52c-0.94-0.83-1.88-1.66-2.81-2.5c-3.29-2.97-3.56-8.04-0.59-11.33c2.96-3.29,8.04-3.55,11.33-0.59c0.89,0.8,1.79,1.59,2.69,2.39c8.52,7.51,18.17,16.02,18.12,29.61c-0.05,13.66-9.85,22.21-18.49,29.75c-8.24,7.19-13.24,12.01-13.32,18.31c-0.08,6.75,5.95,12.35,12.92,18.84c8.69,8.08,18.54,17.25,18.53,31.58c-0.01,13.86-9.29,22.73-17.47,30.55c-6.9,6.59-12.85,12.28-12.91,19.8C417.23,319.55,413.65,323.1,409.25,323.1L409.25,323.1z M409.25,323.1"></path><path fill="#0a89ff" stroke="#000" stroke-miterlimit="10" stroke-width="10" d="M107.95,416.88c-0.1,0-0.21,0-0.31-0.01c-4.43-0.17-7.88-3.89-7.71-8.32c0.51-13.36,10.29-21.28,18.15-27.64c7.42-6.01,11.98-9.99,12.21-15.77c0.24-6.36-5.21-11.96-11.53-18.45c-8.05-8.26-17.17-17.63-17.05-31.81c0.12-14.31,9.55-23.32,17.88-31.27c6.71-6.41,12.5-11.94,12.51-18.95c0-7.34-6.21-13.12-13.42-19.83c-8.53-7.93-18.2-16.93-18.04-30.78c0.17-13.93,10.07-22.58,18.82-30.2c8.07-7.04,12.98-11.75,12.99-17.71c0.02-5.89-4.78-10.55-12.68-17.52c-0.94-0.83-1.88-1.66-2.81-2.5c-3.29-2.97-3.55-8.04-0.59-11.33c2.97-3.29,8.04-3.55,11.33-0.59c0.89,0.8,1.79,1.6,2.7,2.39c8.51,7.51,18.16,16.02,18.11,29.61c-0.05,13.66-9.85,22.21-18.5,29.75c-8.24,7.19-13.24,12-13.32,18.31c-0.08,6.75,5.94,12.35,12.92,18.84c8.69,8.09,18.54,17.25,18.53,31.58c-0.01,13.87-9.29,22.73-17.47,30.55c-6.9,6.59-12.85,12.28-12.92,19.8c-0.06,7.58,5.76,13.57,12.5,20.49c7.77,7.98,16.57,17.02,16.07,30.26c-0.51,13.35-10.29,21.27-18.15,27.63c-7.43,6.01-11.99,9.99-12.21,15.78C115.8,413.49,112.24,416.88,107.95,416.88L107.95,416.88z M107.95,416.88"></path><path fill="#e5354e" stroke="#000" stroke-linecap="round" stroke-linejoin="round" stroke-miterlimit="10" stroke-width="10" d="M200.36,416.14c0,11.28-9.15,20.43-20.43,20.43c-11.28,0-20.43-9.15-20.43-20.43c0-11.28,9.15-20.43,20.43-20.43C191.21,395.71,200.36,404.86,200.36,416.14L200.36,416.14z M200.36,416.14"></path><path fill="#0a89ff" stroke="#000" stroke-miterlimit="10" stroke-width="10" d="M375.99,374.22c0,11.28-9.15,20.43-20.43,20.43s-20.43-9.15-20.43-20.43c0-11.28,9.15-20.43,20.43-20.43S375.99,362.93,375.99,374.22L375.99,374.22z M375.99,374.22"></path><path fill="#fff" stroke="#000" stroke-linecap="round" stroke-linejoin="round" stroke-miterlimit="10" stroke-width="10" d="M224.44 258.02c0 11.28-9.15 20.43-20.43 20.43-11.28 0-20.43-9.14-20.43-20.43 0-11.28 9.15-20.43 20.43-20.43C215.29 237.58 224.44 246.73 224.44 258.02L224.44 258.02zM188.26 98.73c0 4.44-3.59 8.03-8.03 8.03-4.43 0-8.02-3.59-8.02-8.03 0-4.44 3.59-8.03 8.02-8.03C184.67 90.7 188.26 94.3 188.26 98.73L188.26 98.73zM232.66 350.72c0 4.43-3.59 8.02-8.02 8.02-4.44 0-8.03-3.59-8.03-8.02 0-4.44 3.59-8.03 8.03-8.03C229.06 342.7 232.66 346.29 232.66 350.72L232.66 350.72zM468.76 356.28c0 4.44-3.59 8.03-8.02 8.03-4.44 0-8.03-3.59-8.03-8.03 0-4.43 3.59-8.03 8.03-8.03C465.17 348.25 468.76 351.84 468.76 356.28L468.76 356.28zM468.76 356.28"></path><path fill="#e5354e" stroke="#000" stroke-linecap="round" stroke-linejoin="round" stroke-miterlimit="10" stroke-width="10" d="M355.47 286.9c0 4.44-3.59 8.03-8.03 8.03s-8.03-3.59-8.03-8.03c0-4.44 3.59-8.03 8.03-8.03S355.47 282.46 355.47 286.9L355.47 286.9zM216.77 477.59c0 4.44-3.59 8.03-8.02 8.03-4.44 0-8.03-3.59-8.03-8.03 0-4.43 3.59-8.02 8.03-8.02C213.18 469.56 216.77 473.16 216.77 477.59L216.77 477.59zM82.05 275.04c0 4.44-3.59 8.03-8.03 8.03-4.43 0-8.02-3.59-8.02-8.03 0-4.43 3.59-8.02 8.02-8.02C78.45 267.01 82.05 270.6 82.05 275.04L82.05 275.04zM82.05 275.04"></path><path fill="#0a89ff" stroke="#000" stroke-miterlimit="10" stroke-width="10" d="M501.02 146.04c0 4.44-3.59 8.03-8.03 8.03-4.44 0-8.03-3.59-8.03-8.03 0-4.43 3.59-8.02 8.03-8.02C497.43 138.01 501.02 141.6 501.02 146.04L501.02 146.04zM346.47 460.43c0 4.44-3.59 8.03-8.03 8.03-4.43 0-8.02-3.59-8.02-8.03 0-4.44 3.59-8.03 8.02-8.03C342.88 452.4 346.47 456 346.47 460.43L346.47 460.43zM224.36 162.09c0 4.43-3.59 8.02-8.03 8.02-4.43 0-8.02-3.59-8.02-8.02 0-4.44 3.59-8.03 8.02-8.03C220.77 154.06 224.36 157.66 224.36 162.09L224.36 162.09zM224.36 162.09"></path><path fill="#e5354e" stroke="#000" stroke-linecap="round" stroke-linejoin="round" stroke-miterlimit="10" stroke-width="10" d="M427.49,469.65c0.59,0.84,1.42,1.45,2.35,1.77c0.93,0.32,1.95,0.35,2.94,0.05c1.97-0.6,3.33-2.4,3.36-4.46l0.3-17.27l16.52-5.05c1.97-0.6,3.33-2.4,3.36-4.46c0.04-2.06-1.26-3.91-3.21-4.58l-16.33-5.63l0.31-17.27c0.04-2.06-1.26-3.91-3.21-4.58c-1.95-0.67-4.11-0.01-5.34,1.63l-10.4,13.79l-16.33-5.63c-1.95-0.67-4.11-0.01-5.34,1.63c-1.24,1.64-1.28,3.9-0.1,5.59l9.9,14.15l-10.4,13.79c-1.24,1.65-1.28,3.9-0.1,5.59c1.18,1.69,3.31,2.42,5.28,1.82l16.52-5.05L427.49,469.65z M412.29,447.17"></path><path fill="#0a89ff" stroke="#000" stroke-miterlimit="10" stroke-width="10" d="M524.52,267.26c0.99,0.27,2.02,0.21,2.93-0.13c0.92-0.35,1.73-0.98,2.3-1.84c1.13-1.72,1.03-3.97-0.26-5.58l-10.78-13.49l9.5-14.43c1.13-1.72,1.03-3.98-0.26-5.58c-1.29-1.61-3.46-2.21-5.39-1.48l-16.16,6.09l-10.78-13.49c-1.29-1.61-3.46-2.21-5.39-1.48c-1.93,0.73-3.17,2.61-3.07,4.67l0.79,17.25l-16.16,6.09c-1.93,0.73-3.17,2.61-3.07,4.67c0.09,2.06,1.5,3.82,3.49,4.37l16.65,4.58l0.79,17.25c0.1,2.06,1.51,3.82,3.49,4.37c1.98,0.55,4.1-0.25,5.23-1.97l9.5-14.42L524.52,267.26z M498.47,259.65"></path><path fill="#fff" stroke="#000" stroke-linecap="round" stroke-linejoin="round" stroke-miterlimit="10" stroke-width="10" d="M337.11,236.36c0.44,0.93,1.16,1.66,2.02,2.13c0.86,0.47,1.87,0.67,2.89,0.53c2.04-0.27,3.68-1.82,4.05-3.85l3.14-16.98l17.13-2.26c2.04-0.27,3.68-1.83,4.05-3.85c0.37-2.02-0.6-4.06-2.41-5.04l-15.18-8.23l3.14-16.98c0.37-2.03-0.6-4.06-2.41-5.04c-1.81-0.98-4.05-0.69-5.54,0.73l-12.52,11.89l-15.18-8.23c-1.81-0.98-4.05-0.68-5.54,0.73c-1.49,1.42-1.91,3.64-1.02,5.5l7.44,15.59l-12.52,11.89c-1.49,1.42-1.9,3.64-1.01,5.5c0.89,1.86,2.87,2.94,4.91,2.66l17.12-2.26L337.11,236.36z M325.8,211.7"></path></svg>